<?xml version="1.0" encoding="UTF-8"?><svg id="uuid-5dae543a-eba8-4bb0-9467-38784d6a4066" xmlns="http://www.w3.org/2000/svg" viewBox="0 0 64 64"><rect width="64" height="64" style="fill:none;"/><g><path d="m21.504,2.263c1.193,0,2.295.208,3.307.623s1.885.991,2.62,1.725,1.305,1.614,1.709,2.636.607,2.13.607,3.323v12.142c0,.149.075.224.224.224.916.064,1.789.144,2.62.24s1.683.293,2.556.591c1.108.383,2.141.921,3.099,1.614s1.805,1.496,2.54,2.412,1.337,1.917,1.805,3.003.756,2.215.863,3.387c.533.064,1.097.096,1.693.096,2.173,0,4.143-.362,5.911-1.086,1.768-.724,3.27-1.741,4.505-3.051s2.189-2.876,2.86-4.697,1.006-3.818,1.006-5.991c0-.32-.016-.639-.048-.959s-.048-.628-.048-.927c0-.149.021-.288.064-.415s.149-.192.32-.192c.192,0,.394.096.607.288s.415.415.607.671.367.517.527.783.293.474.399.623c.383.554.714,1.246.991,2.077s.501,1.699.671,2.604.293,1.8.367,2.684.112,1.656.112,2.317c0,3.153-.506,5.9-1.518,8.244-1.012,2.343-2.423,4.298-4.234,5.863s-3.978,2.759-6.502,3.579-5.288,1.294-8.292,1.422v11.758c-.234.554-.607,1.006-1.118,1.358s-1.076.527-1.693.527h-7.445c-.234,0-.479-.117-.735-.351s-.383-.479-.383-.735c0-.234.186-.58.559-1.038s.841-.969,1.406-1.534,1.172-1.156,1.821-1.773c.65-.618,1.257-1.188,1.821-1.709.564-.522,1.033-.975,1.406-1.358s.559-.639.559-.767c0-.107-.043-.176-.128-.208s-.16-.069-.224-.112c-.575-.234-1.161-.479-1.757-.735s-1.166-.543-1.709-.863-1.054-.687-1.534-1.102-.879-.911-1.198-1.486c-.256.021-.511.037-.767.048s-.522.016-.799.016c-.32,0-.634-.005-.943-.016s-.623-.027-.943-.048c-.426.49-.996.879-1.709,1.166s-1.401.431-2.061.431c-.298,0-.602-.027-.911-.08s-.612-.133-.911-.24c-.852-.277-1.539-.586-2.061-.927-.522-.341-.991-.698-1.406-1.07s-.82-.756-1.214-1.15-.889-.804-1.486-1.23c-1.001-.682-1.938-1.427-2.812-2.237s-1.646-1.683-2.317-2.62-1.23-1.944-1.677-3.019c-.447-1.076-.746-2.231-.895-3.467l-3.355-2.652,3.259-3.387v-7.732c0-.724-.138-1.161-.415-1.31s-.735-.234-1.374-.256c-.298-.021-.596-.027-.895-.016s-.596.016-.895.016h-3.547c-.511,0-.953-.138-1.326-.415s-.682-.623-.927-1.038-.421-.868-.527-1.358-.16-.948-.16-1.374c0-.362-.005-.714-.016-1.054s-.016-.692-.016-1.054c0-1.172.096-2.247.288-3.227s.527-1.853,1.006-2.62,1.118-1.438,1.917-2.013,1.795-1.044,2.988-1.406c.405-.128,1.006-.218,1.805-.272s1.635-.091,2.508-.112,1.725-.027,2.556-.016,1.502.016,2.013.016h6.422Z" style="fill:#00d26a;"/><path d="m17.478,44.6c.085.043.16.091.224.144s.128.101.192.144c.724.49,1.587.916,2.588,1.278,1.001.362,2.04.671,3.115.927s2.151.453,3.227.591,2.05.24,2.924.304v10.832c0,.32-.043.65-.128.991s-.218.655-.399.943-.41.527-.687.719-.607.288-.991.288h-7.924c-.32,0-.612-.08-.879-.24s-.399-.421-.399-.783c0-.298.096-.543.288-.735.149-.149.431-.426.847-.831s.895-.879,1.438-1.422,1.113-1.113,1.709-1.709,1.145-1.156,1.646-1.677c.501-.522.911-.975,1.23-1.358s.479-.628.479-.735-.043-.181-.128-.224-.17-.075-.256-.096c-.426-.107-.831-.218-1.214-.335-.383-.117-.767-.272-1.15-.463-.618-.298-1.23-.682-1.837-1.15s-1.166-.991-1.677-1.566-.964-1.188-1.358-1.837-.687-1.315-.879-1.997Zm-7.381-17.126c0,1.022-.011,2.04-.032,3.051s.021,2.029.128,3.051c-.32.149-.612.394-.879.735s-.543.682-.831,1.022-.602.644-.943.911c-.341.266-.746.399-1.214.399-.447,0-.841-.154-1.182-.463-.341-.309-.511-.687-.511-1.134v-5.687c0-.554.165-1.006.495-1.358s.772-.527,1.326-.527h3.643Zm5.911,1.917c0-.554.208-1.006.623-1.358s.889-.527,1.422-.527h5.496c.405,0,.788.101,1.15.304s.543.538.543,1.006c0,.362-.149.724-.447,1.086-.383.447-.825.943-1.326,1.486s-1.022,1.086-1.566,1.63-1.081,1.07-1.614,1.582c-.533.511-1.022.969-1.47,1.374-.213.17-.415.309-.607.415-.192.107-.437.16-.735.16s-.618-.091-.959-.272c-.341-.181-.511-.442-.511-.783v-6.103Z" style="fill:#008463;"/><path d="m16.903,4.915c.298,0,.559.117.783.351s.335.501.335.799c0,.341-.107.607-.32.799-.128.128-.282.293-.463.495s-.378.41-.591.623-.437.394-.671.543-.458.224-.671.224c-.32,0-.591-.112-.815-.335s-.335-.495-.335-.815c0-.298.117-.564.351-.799l1.63-1.566c.256-.213.511-.32.767-.32Z" style="fill:#1c1c1c;"/></g></svg>