<?xml version="1.0" encoding="UTF-8"?><svg id="uuid-081352c1-a701-4f78-9ff5-bea393b14c06" xmlns="http://www.w3.org/2000/svg" viewBox="0 0 64 64"><rect width="64" height="64" style="fill:none;"/><g><path d="m17,40v3c0,4.898,3.525,8.967,8.174,9.826l-7.467,7.467c-.63.63-.184,1.707.707,1.707h9.586c1.105,0,2-.895,2-2v-20h-13Z" style="fill:#008463;"/><path d="m4,35.172v-5.172c0-1.105.895-2,2-2h5.172c1.782,0,2.674,2.154,1.414,3.414l-5.172,5.172c-1.26,1.26-3.414.368-3.414-1.414Z" style="fill:#008463;"/><path d="m59.607,15.511c.25,1.125.393,2.289.393,3.489,0,8.837-7.163,16-16,16-.054,0-.106-.008-.16-.008-.976-6.778-6.791-11.992-13.84-11.992v-13c0-4.418-3.582-8-8-8h-14C3.582,2,0,5.582,0,10v5c0,2.209,1.791,4,4,4h6v13.002c0,8.836,7.163,15.998,15.998,15.998h6.351c1.438,2.482,3.907,4.286,6.826,4.826l-7.467,7.467c-.63.63-.184,1.707.707,1.707h9.586c1.105,0,2-.895,2-2v-12c11.046,0,20-8.954,20-20,0-4.728-1.65-9.066-4.393-12.489Z" style="fill:#00d26a;"/><path d="m16,35.172v-5.172c0-1.105.895-2,2-2h5.172c1.782,0,2.674,2.154,1.414,3.414l-5.172,5.172c-1.26,1.26-3.414.368-3.414-1.414Z" style="fill:#008463;"/><rect x="13.616" y="6.402" width="5" height="2.5" rx="1.25" ry="1.25" transform="translate(-.69 13.637) rotate(-45)" style="fill:#1c1c1c;"/></g></svg>