<?xml version="1.0" encoding="UTF-8"?><svg id="uuid-0b48494e-3d58-4924-94d9-bc555e9d7aa7" xmlns="http://www.w3.org/2000/svg" viewBox="0 0 199.98 64"><rect width="64" height="64" style="fill:none;"/><path d="m17,40v3c0,4.898,3.525,8.967,8.174,9.826l-7.467,7.467c-.63.63-.184,1.707.707,1.707h9.586c1.105,0,2-.895,2-2v-20h-13Z" style="fill:#008463;"/><path d="m4,35.172v-5.172c0-1.105.895-2,2-2h5.172c1.782,0,2.674,2.154,1.414,3.414l-5.172,5.172c-1.26,1.26-3.414.368-3.414-1.414Z" style="fill:#008463;"/><path d="m59.607,15.511c.25,1.125.393,2.289.393,3.489,0,8.837-7.163,16-16,16-.054,0-.106-.008-.16-.008-.976-6.778-6.791-11.992-13.84-11.992v-13c0-4.418-3.582-8-8-8h-14C3.582,2,0,5.582,0,10v5c0,2.209,1.791,4,4,4h6v13.002c0,8.836,7.163,15.998,15.998,15.998h6.351c1.438,2.482,3.907,4.286,6.826,4.826l-7.467,7.467c-.63.63-.184,1.707.707,1.707h9.586c1.105,0,2-.895,2-2v-12c11.046,0,20-8.954,20-20,0-4.728-1.65-9.066-4.393-12.489Z" style="fill:#00d26a;"/><path d="m16,35.172v-5.172c0-1.105.895-2,2-2h5.172c1.782,0,2.674,2.154,1.414,3.414l-5.172,5.172c-1.26,1.26-3.414.368-3.414-1.414Z" style="fill:#008463;"/><rect x="13.616" y="6.402" width="5" height="2.5" rx="1.25" ry="1.25" transform="translate(-.69 13.637) rotate(-45)" style="fill:#1c1c1c;"/><path d="m113.867,15.641h7.031v23.625c0,2.172-.48,4.09-1.441,5.754s-2.316,2.949-4.066,3.855-3.727,1.359-5.93,1.359c-3.609,0-6.422-.918-8.438-2.754s-3.023-4.434-3.023-7.793h7.078c0,1.672.352,2.906,1.055,3.703s1.812,1.195,3.328,1.195c1.344,0,2.414-.461,3.211-1.383s1.195-2.234,1.195-3.938V15.641Z"/><path d="m138.148,50.234c-3.719,0-6.746-1.141-9.082-3.422s-3.504-5.32-3.504-9.117v-.656c0-2.547.492-4.824,1.477-6.832s2.379-3.555,4.184-4.641,3.863-1.629,6.176-1.629c3.469,0,6.199,1.094,8.191,3.281s2.988,5.289,2.988,9.305v2.766h-16.148c.219,1.656.879,2.984,1.98,3.984s2.496,1.5,4.184,1.5c2.609,0,4.648-.945,6.117-2.836l3.328,3.727c-1.016,1.438-2.391,2.559-4.125,3.363s-3.656,1.207-5.766,1.207Zm-.773-20.836c-1.344,0-2.434.455-3.27,1.366-.836.91-1.371,2.213-1.605,3.908h9.422v-.542c-.031-1.507-.438-2.672-1.219-3.496-.781-.824-1.891-1.236-3.328-1.236Z"/><path d="m159.57,49.766h-6.797V13.766h6.797v36Z"/><path d="m172.297,49.766h-6.797V13.766h6.797v36Z"/><path d="m189.547,50.234c-3.719,0-6.746-1.141-9.082-3.422s-3.504-5.32-3.504-9.117v-.656c0-2.547.492-4.824,1.477-6.832s2.379-3.555,4.184-4.641,3.863-1.629,6.176-1.629c3.469,0,6.199,1.094,8.191,3.281s2.988,5.289,2.988,9.305v2.766h-16.148c.219,1.656.879,2.984,1.98,3.984s2.496,1.5,4.184,1.5c2.609,0,4.648-.945,6.117-2.836l3.328,3.727c-1.016,1.438-2.391,2.559-4.125,3.363s-3.656,1.207-5.766,1.207Zm-.773-20.836c-1.344,0-2.434.455-3.27,1.366-.836.91-1.371,2.213-1.605,3.908h9.422v-.542c-.031-1.507-.438-2.672-1.219-3.496-.781-.824-1.891-1.236-3.328-1.236Z"/></svg>